/* XPM */
static char *ft_xpm[] = {
/* columns rows colors chars-per-pixel */
"48 48 28 1",
"  c #000000000000",
". c #131313131313",
"X c #303030303030",
"o c #3d3d3d3d3d3d",
"O c #464646464646",
"+ c #505050505050",
"@ c #5d5d5d5d5d5d",
"# c #646464646464",
"$ c #686868686868",
"% c #767676767676",
"& c #787878787878",
"* c #858585858585",
"= c #8c8c8c8c8c8c",
"- c #959595959595",
"; c #9c9c9c9c9c9c",
": c #a1a1a1a1a1a1",
"> c #aaaaaaaaaaaa",
", c #b4b4b4b4b4b4",
"< c #bbbbbbbbbbbb",
"1 c #c3c3c3c3c3c3",
"2 c #cccccccccccc",
"3 c #d4d4d4d4d4d4",
"4 c #dcdcdcdcdcdc",
"5 c #e3e3e3e3e3e3",
"6 c #ecececececec",
"7 c #f2f2f2f2f2f2",
"8 c #fdfdfdfdfdfd",
"9 c None",
/* pixels */
"999999999999999999999999999999999999999999999999",
"999999999999999999999999999999999999999999999999",
"999999999999999999999999999999999999999999999999",
"999999999999999999999999999999999999999999999999",
"999999999999999999999999999999999999999999999999",
"999999999999999999999999999999999999999999999999",
"999999999999999999999999999999999999999999999999",
"999999999999999999999999999999999999999999999999",
"999999999999999999999999999999999999999999999999",
"9999999999999999OOOOOOO9999999999999999999999999",
"999999999999999X8862,;-OOO9999999999999999999999",
"99999999999999  $$8642,:;=OO99999999999999999999",
"99999999999999 <::$$86643,:-X9999999999999999999",
"99999999999999 53<::$$86632<:X999999999999999999",
"999999999999999  541::$$8533,;X99999999999999999",
"999999999OO999999  531;:@5531>X99999999999999999",
"99999999X8:OO999999  531#4433,o99999999999999999",
"99999999X85<:XX999999  :+54441:X9999999999999999",
"99999999 86511:XX99999O$145331;X9999999999999999",
"99999999 $875511:XX999$144433<-X9999999999999999",
"99999999 :$87554<<:XXX<355333,*% 999999999999999",
"99999999 1;$8674443<<<3443352-=*%  9999999999999",
"999999999 1:$8866633334343351:::-=%OO99999999999",
"999999999 71;$%8886666666421,,,,,:;=&OO999999999",
"9999999999 71::$$&88888852<123321,,:-=&999999999",
"99999999999 7311:;$$$$$$%333454331<,>:;999999999",
"999999999999 17431<<<>:=-$&555653321<,>999999999",
"9999999999999. 17333<>:=:;;$&677653321,999999999",
"999999999999999   <62<:;<2<:;$%88754321999999999",
"999999999999999999  .   <5341:;$&886543999999999",
"999999999999999999999999  17441::$&8865999999999",
"99999999999999999999999999  17431;:$&88999999999",
"9999999999999999999999999999  17441:;$&999999999",
"999999999999999999999999999999  17431::999999999",
"99999999999999999999999999999999  17441999999999",
"9999999999999999999999999999999999  174999999999",
"999999999999999999999999999999999999  1999999999",
"99999999999999999999999999999999999999 999999999",
"999999999999999999999999999999999999999999999999",
"999999999999999999999999999999999999999999999999",
"999999999999999999999999999999999999999999999999",
"999999999999999999999999999999999999999999999999",
"999999999999999999999999999999999999999999999999",
"999999999999999999999999999999999999999999999999",
"999999999999999999999999999999999999999999999999",
"999999999999999999999999999999999999999999999999",
"999999999999999999999999999999999999999999999999",
"999999999999999999999999999999999999999999999999",
};
